<svg width="823" height="148" class="js-calendar-graph-svg" xmlns="http://www.w3.org/2000/svg">
    <style>
    :root {
        --c0: rgba(255, 255, 255, 0);
        --c1: #bb00ff;
        --c2: #00ff22;
        --c3: #00ffe1;
        --c4: #ffee00;
    }
    .o, .o[data-level="0"] {
        fill: var(--c0);
        shape-rendering: geometricPrecision;
        outline: 1px solid var(--c0);
        outline-offset: -1px
    }
    .o[data-level="1"] {
        outline: 1px solid var(--c0)
    }
    .o[data-level="2"] { 
        outline: 1px solid var(--c0)
    }
    .o[data-level="3"] {
        outline: 1px solid var(--c0)
    }
    .o[data-level="4"] {
        outline: 1px solid var(--c0)
    }
    .c {
        animation-iteration-count: infinite;
        animation-duration: 5s;
    }
            }</style>
<g transform="translate(15, 20)">
<g transform="translate(0, 0)">
<rect width="11" height="11" x="16" y="0" data-level="0" rx="2" ry="2" class="o"></rect>
<rect width="11" height="11" x="16" y="15" data-level="0" rx="2" ry="2" class="o"></rect>
<rect width="11" height="11" x="16" y="30" data-level="0" rx="2" ry="2" class="o"></rect>
<rect width="11" height="11" x="16" y="45" data-level="0" rx="2" ry="2" class="o"></rect>
<rect width="11" height="11" x="16" y="60" data-level="0" rx="2" ry="2" class="o"></rect>
<rect width="11" height="11" x="16" y="75" data-level="0" rx="2" ry="2" class="o"></rect>
<rect width="11" height="11" x="16" y="90" data-level="0" rx="2" ry="2" class="o"></rect>
</g>
<g transform="translate(16, 0)">
<rect width="11" height="11" x="15" y="0" data-level="0" rx="2" ry="2" class="o"></rect>
<rect width="11" height="11" x="15" y="15" data-level="0" rx="2" ry="2" class="o"></rect>
<rect width="11" height="11" x="15" y="30" data-level="0" rx="2" ry="2" class="o"></rect>
<rect width="11" height="11" x="15" y="45" data-level="0" rx="2" ry="2" class="o"></rect>
<rect width="11" height="11" x="15" y="60" data-level="0" rx="2" ry="2" class="o"></rect>
<rect width="11" height="11" x="15" y="75" data-level="0" rx="2" ry="2" class="o"></rect>
<rect width="11" height="11" x="15" y="90" data-level="0" rx="2" ry="2" class="o"></rect>
</g>
<g transform="translate(32, 0)">
<rect width="11" height="11" x="14" y="0" data-level="0" rx="2" ry="2" class="o"></rect>
<rect width="11" height="11" x="14" y="15" data-level="0" rx="2" ry="2" class="o"></rect>
<rect width="11" height="11" x="14" y="30" data-level="0" rx="2" ry="2" class="o"></rect>
<rect width="11" height="11" x="14" y="45" data-level="0" rx="2" ry="2" class="o"></rect>
<rect width="11" height="11" x="14" y="60" data-level="0" rx="2" ry="2" class="o"></rect>
<rect width="11" height="11" x="14" y="75" data-level="0" rx="2" ry="2" class="o"></rect>
<rect width="11" height="11" x="14" y="90" data-level="0" rx="2" ry="2" class="o"></rect>
</g>
<g transform="translate(48, 0)">
<rect width="11" height="11" x="13" y="0" data-level="0" rx="2" ry="2" class="o"></rect>
<rect width="11" height="11" x="13" y="15" data-level="0" rx="2" ry="2" class="o"></rect>
<rect width="11" height="11" x="13" y="30" data-level="0" rx="2" ry="2" class="o"></rect>
<rect width="11" height="11" x="13" y="45" data-level="0" rx="2" ry="2" class="o"></rect>
<rect width="11" height="11" x="13" y="60" data-level="0" rx="2" ry="2" class="o"></rect>
<rect width="11" height="11" x="13" y="75" data-level="0" rx="2" ry="2" class="o"></rect>
<rect width="11" height="11" x="13" y="90" data-level="0" rx="2" ry="2" class="o"></rect>
</g>
<g transform="translate(64, 0)">
<rect width="11" height="11" x="12" y="0" data-level="0" rx="2" ry="2" class="o"></rect>
<rect width="11" height="11" x="12" y="15" data-level="0" rx="2" ry="2" class="o"></rect>
<rect width="11" height="11" x="12" y="30" data-level="0" rx="2" ry="2" class="o"></rect>
<rect width="11" height="11" x="12" y="45" data-level="0" rx="2" ry="2" class="o"></rect>
<rect width="11" height="11" x="12" y="60" data-level="0" rx="2" ry="2" class="o"></rect>
<rect width="11" height="11" x="12" y="75" data-level="0" rx="2" ry="2" class="o"></rect>
<rect width="11" height="11" x="12" y="90" data-level="0" rx="2" ry="2" class="o"></rect>
</g>
<g transform="translate(80, 0)">
<rect width="11" height="11" x="11" y="0" data-level="0" rx="2" ry="2" class="o"></rect>
<rect width="11" height="11" x="11" y="15" data-level="0" rx="2" ry="2" class="o"></rect>
<rect width="11" height="11" x="11" y="30" data-level="0" rx="2" ry="2" class="o"></rect>
<rect width="11" height="11" x="11" y="45" data-level="0" rx="2" ry="2" class="o"></rect>
<rect width="11" height="11" x="11" y="60" data-level="0" rx="2" ry="2" class="o"></rect>
<rect width="11" height="11" x="11" y="75" data-level="0" rx="2" ry="2" class="o"></rect>
<rect width="11" height="11" x="11" y="90" data-level="0" rx="2" ry="2" class="o"></rect>
</g>
<g transform="translate(96, 0)">
<rect width="11" height="11" x="10" y="0" data-level="0" rx="2" ry="2" class="o c c0"></rect>
<rect width="11" height="11" x="10" y="15" data-level="0" rx="2" ry="2" class="o c c1"></rect>
<rect width="11" height="11" x="10" y="30" data-level="0" rx="2" ry="2" class="o c c2"></rect>
<rect width="11" height="11" x="10" y="45" data-level="0" rx="2" ry="2" class="o c c3"></rect>
<rect width="11" height="11" x="10" y="60" data-level="0" rx="2" ry="2" class="o c c4"></rect>
<rect width="11" height="11" x="10" y="75" data-level="0" rx="2" ry="2" class="o c c5"></rect>
<rect width="11" height="11" x="10" y="90" data-level="0" rx="2" ry="2" class="o c c6"></rect>
</g>
<g transform="translate(112, 0)">
<rect width="11" height="11" x="9" y="0" data-level="0" rx="2" ry="2" class="o"></rect>
<rect width="11" height="11" x="9" y="15" data-level="0" rx="2" ry="2" class="o"></rect>
<rect width="11" height="11" x="9" y="30" data-level="0" rx="2" ry="2" class="o"></rect>
<rect width="11" height="11" x="9" y="45" data-level="0" rx="2" ry="2" class="o"></rect>
<rect width="11" height="11" x="9" y="60" data-level="0" rx="2" ry="2" class="o"></rect>
<rect width="11" height="11" x="9" y="75" data-level="0" rx="2" ry="2" class="o c c7"></rect>
<rect width="11" height="11" x="9" y="90" data-level="0" rx="2" ry="2" class="o"></rect>
</g>
<g transform="translate(128, 0)">
<rect width="11" height="11" x="8" y="0" data-level="0" rx="2" ry="2" class="o"></rect>
<rect width="11" height="11" x="8" y="15" data-level="0" rx="2" ry="2" class="o"></rect>
<rect width="11" height="11" x="8" y="30" data-level="0" rx="2" ry="2" class="o"></rect>
<rect width="11" height="11" x="8" y="45" data-level="0" rx="2" ry="2" class="o c c8"></rect>
<rect width="11" height="11" x="8" y="60" data-level="0" rx="2" ry="2" class="o c c9"></rect>
<rect width="11" height="11" x="8" y="75" data-level="0" rx="2" ry="2" class="o"></rect>
<rect width="11" height="11" x="8" y="90" data-level="0" rx="2" ry="2" class="o"></rect>
</g>
<g transform="translate(144, 0)">
<rect width="11" height="11" x="7" y="0" data-level="0" rx="2" ry="2" class="o"></rect>
<rect width="11" height="11" x="7" y="15" data-level="0" rx="2" ry="2" class="o"></rect>
<rect width="11" height="11" x="7" y="30" data-level="0" rx="2" ry="2" class="o"></rect>
<rect width="11" height="11" x="7" y="45" data-level="0" rx="2" ry="2" class="o"></rect>
<rect width="11" height="11" x="7" y="60" data-level="0" rx="2" ry="2" class="o"></rect>
<rect width="11" height="11" x="7" y="75" data-level="0" rx="2" ry="2" class="o c c10"></rect>
<rect width="11" height="11" x="7" y="90" data-level="0" rx="2" ry="2" class="o"></rect>
</g>
<g transform="translate(160, 0)">
<rect width="11" height="11" x="6" y="0" data-level="0" rx="2" ry="2" class="o c c11"></rect>
<rect width="11" height="11" x="6" y="15" data-level="0" rx="2" ry="2" class="o c c12"></rect>
<rect width="11" height="11" x="6" y="30" data-level="0" rx="2" ry="2" class="o c c13"></rect>
<rect width="11" height="11" x="6" y="45" data-level="0" rx="2" ry="2" class="o c c14"></rect>
<rect width="11" height="11" x="6" y="60" data-level="0" rx="2" ry="2" class="o c c15"></rect>
<rect width="11" height="11" x="6" y="75" data-level="0" rx="2" ry="2" class="o c c16"></rect>
<rect width="11" height="11" x="6" y="90" data-level="0" rx="2" ry="2" class="o c c17"></rect>
</g>
<g transform="translate(176, 0)">
<rect width="11" height="11" x="5" y="0" data-level="0" rx="2" ry="2" class="o"></rect>
<rect width="11" height="11" x="5" y="15" data-level="0" rx="2" ry="2" class="o"></rect>
<rect width="11" height="11" x="5" y="30" data-level="0" rx="2" ry="2" class="o"></rect>
<rect width="11" height="11" x="5" y="45" data-level="0" rx="2" ry="2" class="o"></rect>
<rect width="11" height="11" x="5" y="60" data-level="0" rx="2" ry="2" class="o"></rect>
<rect width="11" height="11" x="5" y="75" data-level="0" rx="2" ry="2" class="o"></rect>
<rect width="11" height="11" x="5" y="90" data-level="0" rx="2" ry="2" class="o"></rect>
</g>
<g transform="translate(192, 0)">
<rect width="11" height="11" x="4" y="0" data-level="0" rx="2" ry="2" class="o"></rect>
<rect width="11" height="11" x="4" y="15" data-level="0" rx="2" ry="2" class="o"></rect>
<rect width="11" height="11" x="4" y="30" data-level="0" rx="2" ry="2" class="o"></rect>
<rect width="11" height="11" x="4" y="45" data-level="0" rx="2" ry="2" class="o c c18"></rect>
<rect width="11" height="11" x="4" y="60" data-level="0" rx="2" ry="2" class="o c c19"></rect>
<rect width="11" height="11" x="4" y="75" data-level="0" rx="2" ry="2" class="o c c20"></rect>
<rect width="11" height="11" x="4" y="90" data-level="0" rx="2" ry="2" class="o"></rect>
</g>
<g transform="translate(208, 0)">
<rect width="11" height="11" x="3" y="0" data-level="0" rx="2" ry="2" class="o"></rect>
<rect width="11" height="11" x="3" y="15" data-level="0" rx="2" ry="2" class="o"></rect>
<rect width="11" height="11" x="3" y="30" data-level="0" rx="2" ry="2" class="o c c21"></rect>
<rect width="11" height="11" x="3" y="45" data-level="0" rx="2" ry="2" class="o"></rect>
<rect width="11" height="11" x="3" y="60" data-level="0" rx="2" ry="2" class="o c c22"></rect>
<rect width="11" height="11" x="3" y="75" data-level="0" rx="2" ry="2" class="o"></rect>
<rect width="11" height="11" x="3" y="90" data-level="0" rx="2" ry="2" class="o c c23"></rect>
</g>
<g transform="translate(224, 0)">
<rect width="11" height="11" x="2" y="0" data-level="0" rx="2" ry="2" class="o"></rect>
<rect width="11" height="11" x="2" y="15" data-level="0" rx="2" ry="2" class="o"></rect>
<rect width="11" height="11" x="2" y="30" data-level="0" rx="2" ry="2" class="o c c24"></rect>
<rect width="11" height="11" x="2" y="45" data-level="0" rx="2" ry="2" class="o"></rect>
<rect width="11" height="11" x="2" y="60" data-level="0" rx="2" ry="2" class="o c c25"></rect>
<rect width="11" height="11" x="2" y="75" data-level="0" rx="2" ry="2" class="o"></rect>
<rect width="11" height="11" x="2" y="90" data-level="0" rx="2" ry="2" class="o c c26"></rect>
</g>
<g transform="translate(240, 0)">
<rect width="11" height="11" x="1" y="0" data-level="0" rx="2" ry="2" class="o"></rect>
<rect width="11" height="11" x="1" y="15" data-level="0" rx="2" ry="2" class="o"></rect>
<rect width="11" height="11" x="1" y="30" data-level="0" rx="2" ry="2" class="o c c27"></rect>
<rect width="11" height="11" x="1" y="45" data-level="0" rx="2" ry="2" class="o"></rect>
<rect width="11" height="11" x="1" y="60" data-level="0" rx="2" ry="2" class="o c c28"></rect>
<rect width="11" height="11" x="1" y="75" data-level="0" rx="2" ry="2" class="o"></rect>
<rect width="11" height="11" x="1" y="90" data-level="0" rx="2" ry="2" class="o c c29"></rect>
</g>
<g transform="translate(256, 0)">
<rect width="11" height="11" x="0" y="0" data-level="0" rx="2" ry="2" class="o"></rect>
<rect width="11" height="11" x="0" y="15" data-level="0" rx="2" ry="2" class="o"></rect>
<rect width="11" height="11" x="0" y="30" data-level="0" rx="2" ry="2" class="o"></rect>
<rect width="11" height="11" x="0" y="45" data-level="0" rx="2" ry="2" class="o c c30"></rect>
<rect width="11" height="11" x="0" y="60" data-level="0" rx="2" ry="2" class="o c c31"></rect>
<rect width="11" height="11" x="0" y="75" data-level="0" rx="2" ry="2" class="o"></rect>
<rect width="11" height="11" x="0" y="90" data-level="0" rx="2" ry="2" class="o"></rect>
</g>
<g transform="translate(272, 0)">
<rect width="11" height="11" x="-1" y="0" data-level="0" rx="2" ry="2" class="o"></rect>
<rect width="11" height="11" x="-1" y="15" data-level="0" rx="2" ry="2" class="o"></rect>
<rect width="11" height="11" x="-1" y="30" data-level="0" rx="2" ry="2" class="o"></rect>
<rect width="11" height="11" x="-1" y="45" data-level="0" rx="2" ry="2" class="o"></rect>
<rect width="11" height="11" x="-1" y="60" data-level="0" rx="2" ry="2" class="o"></rect>
<rect width="11" height="11" x="-1" y="75" data-level="0" rx="2" ry="2" class="o"></rect>
<rect width="11" height="11" x="-1" y="90" data-level="0" rx="2" ry="2" class="o"></rect>
</g>
<g transform="translate(288, 0)">
<rect width="11" height="11" x="-2" y="0" data-level="0" rx="2" ry="2" class="o"></rect>
<rect width="11" height="11" x="-2" y="15" data-level="0" rx="2" ry="2" class="o"></rect>
<rect width="11" height="11" x="-2" y="30" data-level="0" rx="2" ry="2" class="o"></rect>
<rect width="11" height="11" x="-2" y="45" data-level="0" rx="2" ry="2" class="o"></rect>
<rect width="11" height="11" x="-2" y="60" data-level="0" rx="2" ry="2" class="o"></rect>
<rect width="11" height="11" x="-2" y="75" data-level="0" rx="2" ry="2" class="o"></rect>
<rect width="11" height="11" x="-2" y="90" data-level="0" rx="2" ry="2" class="o"></rect>
</g>
<g transform="translate(304, 0)">
<rect width="11" height="11" x="-3" y="0" data-level="0" rx="2" ry="2" class="o c c32"></rect>
<rect width="11" height="11" x="-3" y="15" data-level="0" rx="2" ry="2" class="o"></rect>
<rect width="11" height="11" x="-3" y="30" data-level="0" rx="2" ry="2" class="o"></rect>
<rect width="11" height="11" x="-3" y="45" data-level="0" rx="2" ry="2" class="o"></rect>
<rect width="11" height="11" x="-3" y="60" data-level="0" rx="2" ry="2" class="o"></rect>
<rect width="11" height="11" x="-3" y="75" data-level="0" rx="2" ry="2" class="o"></rect>
<rect width="11" height="11" x="-3" y="90" data-level="0" rx="2" ry="2" class="o c c33"></rect>
</g>
<g transform="translate(320, 0)">
<rect width="11" height="11" x="-4" y="0" data-level="0" rx="2" ry="2" class="o c c34"></rect>
<rect width="11" height="11" x="-4" y="15" data-level="0" rx="2" ry="2" class="o c c35"></rect>
<rect width="11" height="11" x="-4" y="30" data-level="0" rx="2" ry="2" class="o c c36"></rect>
<rect width="11" height="11" x="-4" y="45" data-level="0" rx="2" ry="2" class="o c c37"></rect>
<rect width="11" height="11" x="-4" y="60" data-level="0" rx="2" ry="2" class="o c c38"></rect>
<rect width="11" height="11" x="-4" y="75" data-level="0" rx="2" ry="2" class="o c c39"></rect>
<rect width="11" height="11" x="-4" y="90" data-level="0" rx="2" ry="2" class="o c c40"></rect>
</g>
<g transform="translate(336, 0)">
<rect width="11" height="11" x="-5" y="0" data-level="0" rx="2" ry="2" class="o"></rect>
<rect width="11" height="11" x="-5" y="15" data-level="0" rx="2" ry="2" class="o"></rect>
<rect width="11" height="11" x="-5" y="30" data-level="0" rx="2" ry="2" class="o"></rect>
<rect width="11" height="11" x="-5" y="45" data-level="0" rx="2" ry="2" class="o"></rect>
<rect width="11" height="11" x="-5" y="60" data-level="0" rx="2" ry="2" class="o"></rect>
<rect width="11" height="11" x="-5" y="75" data-level="0" rx="2" ry="2" class="o"></rect>
<rect width="11" height="11" x="-5" y="90" data-level="0" rx="2" ry="2" class="o c c41"></rect>
</g>
<g transform="translate(352, 0)">
<rect width="11" height="11" x="-6" y="0" data-level="0" rx="2" ry="2" class="o"></rect>
<rect width="11" height="11" x="-6" y="15" data-level="0" rx="2" ry="2" class="o"></rect>
<rect width="11" height="11" x="-6" y="30" data-level="0" rx="2" ry="2" class="o"></rect>
<rect width="11" height="11" x="-6" y="45" data-level="0" rx="2" ry="2" class="o"></rect>
<rect width="11" height="11" x="-6" y="60" data-level="0" rx="2" ry="2" class="o"></rect>
<rect width="11" height="11" x="-6" y="75" data-level="0" rx="2" ry="2" class="o"></rect>
<rect width="11" height="11" x="-6" y="90" data-level="0" rx="2" ry="2" class="o"></rect>
</g>
<g transform="translate(368, 0)">
<rect width="11" height="11" x="-7" y="0" data-level="0" rx="2" ry="2" class="o"></rect>
<rect width="11" height="11" x="-7" y="15" data-level="0" rx="2" ry="2" class="o"></rect>
<rect width="11" height="11" x="-7" y="30" data-level="0" rx="2" ry="2" class="o"></rect>
<rect width="11" height="11" x="-7" y="45" data-level="0" rx="2" ry="2" class="o"></rect>
<rect width="11" height="11" x="-7" y="60" data-level="0" rx="2" ry="2" class="o"></rect>
<rect width="11" height="11" x="-7" y="75" data-level="0" rx="2" ry="2" class="o"></rect>
<rect width="11" height="11" x="-7" y="90" data-level="0" rx="2" ry="2" class="o"></rect>
</g>
<g transform="translate(384, 0)">
<rect width="11" height="11" x="-8" y="0" data-level="0" rx="2" ry="2" class="o"></rect>
<rect width="11" height="11" x="-8" y="15" data-level="0" rx="2" ry="2" class="o"></rect>
<rect width="11" height="11" x="-8" y="30" data-level="0" rx="2" ry="2" class="o"></rect>
<rect width="11" height="11" x="-8" y="45" data-level="0" rx="2" ry="2" class="o c c42"></rect>
<rect width="11" height="11" x="-8" y="60" data-level="0" rx="2" ry="2" class="o c c43"></rect>
<rect width="11" height="11" x="-8" y="75" data-level="0" rx="2" ry="2" class="o c c44"></rect>
<rect width="11" height="11" x="-8" y="90" data-level="0" rx="2" ry="2" class="o"></rect>
</g>
<g transform="translate(400, 0)">
<rect width="11" height="11" x="-9" y="0" data-level="0" rx="2" ry="2" class="o"></rect>
<rect width="11" height="11" x="-9" y="15" data-level="0" rx="2" ry="2" class="o"></rect>
<rect width="11" height="11" x="-9" y="30" data-level="0" rx="2" ry="2" class="o c c45"></rect>
<rect width="11" height="11" x="-9" y="45" data-level="0" rx="2" ry="2" class="o"></rect>
<rect width="11" height="11" x="-9" y="60" data-level="0" rx="2" ry="2" class="o"></rect>
<rect width="11" height="11" x="-9" y="75" data-level="0" rx="2" ry="2" class="o"></rect>
<rect width="11" height="11" x="-9" y="90" data-level="0" rx="2" ry="2" class="o c c46"></rect>
</g>
<g transform="translate(416, 0)">
<rect width="11" height="11" x="-10" y="0" data-level="0" rx="2" ry="2" class="o"></rect>
<rect width="11" height="11" x="-10" y="15" data-level="0" rx="2" ry="2" class="o"></rect>
<rect width="11" height="11" x="-10" y="30" data-level="0" rx="2" ry="2" class="o c c47"></rect>
<rect width="11" height="11" x="-10" y="45" data-level="0" rx="2" ry="2" class="o"></rect>
<rect width="11" height="11" x="-10" y="60" data-level="0" rx="2" ry="2" class="o"></rect>
<rect width="11" height="11" x="-10" y="75" data-level="0" rx="2" ry="2" class="o"></rect>
<rect width="11" height="11" x="-10" y="90" data-level="0" rx="2" ry="2" class="o c c48"></rect>
</g>
<g transform="translate(432, 0)">
<rect width="11" height="11" x="-11" y="0" data-level="0" rx="2" ry="2" class="o"></rect>
<rect width="11" height="11" x="-11" y="15" data-level="0" rx="2" ry="2" class="o"></rect>
<rect width="11" height="11" x="-11" y="30" data-level="0" rx="2" ry="2" class="o c c49"></rect>
<rect width="11" height="11" x="-11" y="45" data-level="0" rx="2" ry="2" class="o"></rect>
<rect width="11" height="11" x="-11" y="60" data-level="0" rx="2" ry="2" class="o"></rect>
<rect width="11" height="11" x="-11" y="75" data-level="0" rx="2" ry="2" class="o"></rect>
<rect width="11" height="11" x="-11" y="90" data-level="0" rx="2" ry="2" class="o c c50"></rect>
</g>
<g transform="translate(448, 0)">
<rect width="11" height="11" x="-12" y="0" data-level="0" rx="2" ry="2" class="o"></rect>
<rect width="11" height="11" x="-12" y="15" data-level="0" rx="2" ry="2" class="o"></rect>
<rect width="11" height="11" x="-12" y="30" data-level="0" rx="2" ry="2" class="o"></rect>
<rect width="11" height="11" x="-12" y="45" data-level="0" rx="2" ry="2" class="o"></rect>
<rect width="11" height="11" x="-12" y="60" data-level="0" rx="2" ry="2" class="o"></rect>
<rect width="11" height="11" x="-12" y="75" data-level="0" rx="2" ry="2" class="o c c51"></rect>
<rect width="11" height="11" x="-12" y="90" data-level="0" rx="2" ry="2" class="o"></rect>
</g>
<g transform="translate(464, 0)">
<rect width="11" height="11" x="-13" y="0" data-level="0" rx="2" ry="2" class="o"></rect>
<rect width="11" height="11" x="-13" y="15" data-level="0" rx="2" ry="2" class="o"></rect>
<rect width="11" height="11" x="-13" y="30" data-level="0" rx="2" ry="2" class="o"></rect>
<rect width="11" height="11" x="-13" y="45" data-level="0" rx="2" ry="2" class="o"></rect>
<rect width="11" height="11" x="-13" y="60" data-level="0" rx="2" ry="2" class="o"></rect>
<rect width="11" height="11" x="-13" y="75" data-level="0" rx="2" ry="2" class="o"></rect>
<rect width="11" height="11" x="-13" y="90" data-level="0" rx="2" ry="2" class="o"></rect>
</g>
<g transform="translate(480, 0)">
<rect width="11" height="11" x="-14" y="0" data-level="0" rx="2" ry="2" class="o"></rect>
<rect width="11" height="11" x="-14" y="15" data-level="0" rx="2" ry="2" class="o"></rect>
<rect width="11" height="11" x="-14" y="30" data-level="0" rx="2" ry="2" class="o"></rect>
<rect width="11" height="11" x="-14" y="45" data-level="0" rx="2" ry="2" class="o c c52"></rect>
<rect width="11" height="11" x="-14" y="60" data-level="0" rx="2" ry="2" class="o c c53"></rect>
<rect width="11" height="11" x="-14" y="75" data-level="0" rx="2" ry="2" class="o c c54"></rect>
<rect width="11" height="11" x="-14" y="90" data-level="0" rx="2" ry="2" class="o"></rect>
</g>
<g transform="translate(496, 0)">
<rect width="11" height="11" x="-15" y="0" data-level="0" rx="2" ry="2" class="o"></rect>
<rect width="11" height="11" x="-15" y="15" data-level="0" rx="2" ry="2" class="o"></rect>
<rect width="11" height="11" x="-15" y="30" data-level="0" rx="2" ry="2" class="o c c55"></rect>
<rect width="11" height="11" x="-15" y="45" data-level="0" rx="2" ry="2" class="o"></rect>
<rect width="11" height="11" x="-15" y="60" data-level="0" rx="2" ry="2" class="o"></rect>
<rect width="11" height="11" x="-15" y="75" data-level="0" rx="2" ry="2" class="o"></rect>
<rect width="11" height="11" x="-15" y="90" data-level="0" rx="2" ry="2" class="o c c56"></rect>
</g>
<g transform="translate(512, 0)">
<rect width="11" height="11" x="-16" y="0" data-level="0" rx="2" ry="2" class="o"></rect>
<rect width="11" height="11" x="-16" y="15" data-level="0" rx="2" ry="2" class="o"></rect>
<rect width="11" height="11" x="-16" y="30" data-level="0" rx="2" ry="2" class="o c c57"></rect>
<rect width="11" height="11" x="-16" y="45" data-level="0" rx="2" ry="2" class="o"></rect>
<rect width="11" height="11" x="-16" y="60" data-level="0" rx="2" ry="2" class="o"></rect>
<rect width="11" height="11" x="-16" y="75" data-level="0" rx="2" ry="2" class="o"></rect>
<rect width="11" height="11" x="-16" y="90" data-level="0" rx="2" ry="2" class="o c c58"></rect>
</g>
<g transform="translate(528, 0)">
<rect width="11" height="11" x="-17" y="0" data-level="0" rx="2" ry="2" class="o"></rect>
<rect width="11" height="11" x="-17" y="15" data-level="0" rx="2" ry="2" class="o"></rect>
<rect width="11" height="11" x="-17" y="30" data-level="0" rx="2" ry="2" class="o c c59"></rect>
<rect width="11" height="11" x="-17" y="45" data-level="0" rx="2" ry="2" class="o"></rect>
<rect width="11" height="11" x="-17" y="60" data-level="0" rx="2" ry="2" class="o"></rect>
<rect width="11" height="11" x="-17" y="75" data-level="0" rx="2" ry="2" class="o"></rect>
<rect width="11" height="11" x="-17" y="90" data-level="0" rx="2" ry="2" class="o c c60"></rect>
</g>
<g transform="translate(544, 0)">
<rect width="11" height="11" x="-18" y="0" data-level="0" rx="2" ry="2" class="o"></rect>
<rect width="11" height="11" x="-18" y="15" data-level="0" rx="2" ry="2" class="o"></rect>
<rect width="11" height="11" x="-18" y="30" data-level="0" rx="2" ry="2" class="o"></rect>
<rect width="11" height="11" x="-18" y="45" data-level="0" rx="2" ry="2" class="o c c61"></rect>
<rect width="11" height="11" x="-18" y="60" data-level="0" rx="2" ry="2" class="o c c62"></rect>
<rect width="11" height="11" x="-18" y="75" data-level="0" rx="2" ry="2" class="o c c63"></rect>
<rect width="11" height="11" x="-18" y="90" data-level="0" rx="2" ry="2" class="o"></rect>
</g>
<g transform="translate(560, 0)">
<rect width="11" height="11" x="-19" y="0" data-level="0" rx="2" ry="2" class="o"></rect>
<rect width="11" height="11" x="-19" y="15" data-level="0" rx="2" ry="2" class="o"></rect>
<rect width="11" height="11" x="-19" y="30" data-level="0" rx="2" ry="2" class="o"></rect>
<rect width="11" height="11" x="-19" y="45" data-level="0" rx="2" ry="2" class="o"></rect>
<rect width="11" height="11" x="-19" y="60" data-level="0" rx="2" ry="2" class="o"></rect>
<rect width="11" height="11" x="-19" y="75" data-level="0" rx="2" ry="2" class="o"></rect>
<rect width="11" height="11" x="-19" y="90" data-level="0" rx="2" ry="2" class="o"></rect>
</g>
<g transform="translate(576, 0)">
<rect width="11" height="11" x="-20" y="0" data-level="0" rx="2" ry="2" class="o"></rect>
<rect width="11" height="11" x="-20" y="15" data-level="0" rx="2" ry="2" class="o"></rect>
<rect width="11" height="11" x="-20" y="30" data-level="0" rx="2" ry="2" class="o c c64"></rect>
<rect width="11" height="11" x="-20" y="45" data-level="0" rx="2" ry="2" class="o c c65"></rect>
<rect width="11" height="11" x="-20" y="60" data-level="0" rx="2" ry="2" class="o c c66"></rect>
<rect width="11" height="11" x="-20" y="75" data-level="0" rx="2" ry="2" class="o c c67"></rect>
<rect width="11" height="11" x="-20" y="90" data-level="0" rx="2" ry="2" class="o c c68"></rect>
</g>
<g transform="translate(592, 0)">
<rect width="11" height="11" x="-21" y="0" data-level="0" rx="2" ry="2" class="o"></rect>
<rect width="11" height="11" x="-21" y="15" data-level="0" rx="2" ry="2" class="o"></rect>
<rect width="11" height="11" x="-21" y="30" data-level="0" rx="2" ry="2" class="o c c69"></rect>
<rect width="11" height="11" x="-21" y="45" data-level="0" rx="2" ry="2" class="o"></rect>
<rect width="11" height="11" x="-21" y="60" data-level="0" rx="2" ry="2" class="o"></rect>
<rect width="11" height="11" x="-21" y="75" data-level="0" rx="2" ry="2" class="o"></rect>
<rect width="11" height="11" x="-21" y="90" data-level="0" rx="2" ry="2" class="o"></rect>
</g>
<g transform="translate(608, 0)">
<rect width="11" height="11" x="-22" y="0" data-level="0" rx="2" ry="2" class="o"></rect>
<rect width="11" height="11" x="-22" y="15" data-level="0" rx="2" ry="2" class="o"></rect>
<rect width="11" height="11" x="-22" y="30" data-level="0" rx="2" ry="2" class="o"></rect>
<rect width="11" height="11" x="-22" y="45" data-level="0" rx="2" ry="2" class="o c c70"></rect>
<rect width="11" height="11" x="-22" y="60" data-level="0" rx="2" ry="2" class="o c c71"></rect>
<rect width="11" height="11" x="-22" y="75" data-level="0" rx="2" ry="2" class="o"></rect>
<rect width="11" height="11" x="-22" y="90" data-level="0" rx="2" ry="2" class="o"></rect>
</g>
<g transform="translate(624, 0)">
<rect width="11" height="11" x="-23" y="0" data-level="0" rx="2" ry="2" class="o"></rect>
<rect width="11" height="11" x="-23" y="15" data-level="0" rx="2" ry="2" class="o"></rect>
<rect width="11" height="11" x="-23" y="30" data-level="0" rx="2" ry="2" class="o c c72"></rect>
<rect width="11" height="11" x="-23" y="45" data-level="0" rx="2" ry="2" class="o"></rect>
<rect width="11" height="11" x="-23" y="60" data-level="0" rx="2" ry="2" class="o"></rect>
<rect width="11" height="11" x="-23" y="75" data-level="0" rx="2" ry="2" class="o"></rect>
<rect width="11" height="11" x="-23" y="90" data-level="0" rx="2" ry="2" class="o"></rect>
</g>
<g transform="translate(640, 0)">
<rect width="11" height="11" x="-24" y="0" data-level="0" rx="2" ry="2" class="o"></rect>
<rect width="11" height="11" x="-24" y="15" data-level="0" rx="2" ry="2" class="o"></rect>
<rect width="11" height="11" x="-24" y="30" data-level="0" rx="2" ry="2" class="o"></rect>
<rect width="11" height="11" x="-24" y="45" data-level="0" rx="2" ry="2" class="o c c73"></rect>
<rect width="11" height="11" x="-24" y="60" data-level="0" rx="2" ry="2" class="o c c74"></rect>
<rect width="11" height="11" x="-24" y="75" data-level="0" rx="2" ry="2" class="o c c75"></rect>
<rect width="11" height="11" x="-24" y="90" data-level="0" rx="2" ry="2" class="o c c76"></rect>
</g>
<g transform="translate(656, 0)">
<rect width="11" height="11" x="-25" y="0" data-level="0" rx="2" ry="2" class="o"></rect>
<rect width="11" height="11" x="-25" y="15" data-level="0" rx="2" ry="2" class="o"></rect>
<rect width="11" height="11" x="-25" y="30" data-level="0" rx="2" ry="2" class="o"></rect>
<rect width="11" height="11" x="-25" y="45" data-level="0" rx="2" ry="2" class="o"></rect>
<rect width="11" height="11" x="-25" y="60" data-level="0" rx="2" ry="2" class="o"></rect>
<rect width="11" height="11" x="-25" y="75" data-level="0" rx="2" ry="2" class="o"></rect>
<rect width="11" height="11" x="-25" y="90" data-level="0" rx="2" ry="2" class="o"></rect>
</g>
<g transform="translate(672, 0)">
<rect width="11" height="11" x="-26" y="0" data-level="0" rx="2" ry="2" class="o"></rect>
<rect width="11" height="11" x="-26" y="15" data-level="0" rx="2" ry="2" class="o"></rect>
<rect width="11" height="11" x="-26" y="30" data-level="0" rx="2" ry="2" class="o"></rect>
<rect width="11" height="11" x="-26" y="45" data-level="0" rx="2" ry="2" class="o c c77"></rect>
<rect width="11" height="11" x="-26" y="60" data-level="0" rx="2" ry="2" class="o c c78"></rect>
<rect width="11" height="11" x="-26" y="75" data-level="0" rx="2" ry="2" class="o c c79"></rect>
<rect width="11" height="11" x="-26" y="90" data-level="0" rx="2" ry="2" class="o"></rect>
</g>
<g transform="translate(688, 0)">
<rect width="11" height="11" x="-27" y="0" data-level="0" rx="2" ry="2" class="o"></rect>
<rect width="11" height="11" x="-27" y="15" data-level="0" rx="2" ry="2" class="o"></rect>
<rect width="11" height="11" x="-27" y="30" data-level="0" rx="2" ry="2" class="o c c80"></rect>
<rect width="11" height="11" x="-27" y="45" data-level="0" rx="2" ry="2" class="o"></rect>
<rect width="11" height="11" x="-27" y="60" data-level="0" rx="2" ry="2" class="o c c81"></rect>
<rect width="11" height="11" x="-27" y="75" data-level="0" rx="2" ry="2" class="o"></rect>
<rect width="11" height="11" x="-27" y="90" data-level="0" rx="2" ry="2" class="o c c82"></rect>
</g>
<g transform="translate(704, 0)">
<rect width="11" height="11" x="-28" y="0" data-level="0" rx="2" ry="2" class="o"></rect>
<rect width="11" height="11" x="-28" y="15" data-level="0" rx="2" ry="2" class="o"></rect>
<rect width="11" height="11" x="-28" y="30" data-level="0" rx="2" ry="2" class="o c c83"></rect>
<rect width="11" height="11" x="-28" y="45" data-level="0" rx="2" ry="2" class="o"></rect>
<rect width="11" height="11" x="-28" y="60" data-level="0" rx="2" ry="2" class="o c c84"></rect>
<rect width="11" height="11" x="-28" y="75" data-level="0" rx="2" ry="2" class="o"></rect>
<rect width="11" height="11" x="-28" y="90" data-level="0" rx="2" ry="2" class="o c c85"></rect>
</g>
<g transform="translate(720, 0)">
<rect width="11" height="11" x="-29" y="0" data-level="0" rx="2" ry="2" class="o"></rect>
<rect width="11" height="11" x="-29" y="15" data-level="0" rx="2" ry="2" class="o"></rect>
<rect width="11" height="11" x="-29" y="30" data-level="0" rx="2" ry="2" class="o c c86"></rect>
<rect width="11" height="11" x="-29" y="45" data-level="0" rx="2" ry="2" class="o"></rect>
<rect width="11" height="11" x="-29" y="60" data-level="0" rx="2" ry="2" class="o c c87"></rect>
<rect width="11" height="11" x="-29" y="75" data-level="0" rx="2" ry="2" class="o"></rect>
<rect width="11" height="11" x="-29" y="90" data-level="0" rx="2" ry="2" class="o c c88"></rect>
</g>
<g transform="translate(736, 0)">
<rect width="11" height="11" x="-30" y="0" data-level="0" rx="2" ry="2" class="o"></rect>
<rect width="11" height="11" x="-30" y="15" data-level="0" rx="2" ry="2" class="o"></rect>
<rect width="11" height="11" x="-30" y="30" data-level="0" rx="2" ry="2" class="o"></rect>
<rect width="11" height="11" x="-30" y="45" data-level="0" rx="2" ry="2" class="o c c89"></rect>
<rect width="11" height="11" x="-30" y="60" data-level="0" rx="2" ry="2" class="o c c90"></rect>
<rect width="11" height="11" x="-30" y="75" data-level="0" rx="2" ry="2" class="o"></rect>
<rect width="11" height="11" x="-30" y="90" data-level="0" rx="2" ry="2" class="o"></rect>
</g>
<g transform="translate(752, 0)">
<rect width="11" height="11" x="-31" y="0" data-level="0" rx="2" ry="2" class="o"></rect>
<rect width="11" height="11" x="-31" y="15" data-level="0" rx="2" ry="2" class="o"></rect>
<rect width="11" height="11" x="-31" y="30" data-level="0" rx="2" ry="2" class="o"></rect>
<rect width="11" height="11" x="-31" y="45" data-level="0" rx="2" ry="2" class="o"></rect>
<rect width="11" height="11" x="-31" y="60" data-level="0" rx="2" ry="2" class="o"></rect>
<rect width="11" height="11" x="-31" y="75" data-level="0" rx="2" ry="2" class="o"></rect>
<rect width="11" height="11" x="-31" y="90" data-level="0" rx="2" ry="2" class="o"></rect>
</g>
<g transform="translate(768, 0)">
<rect width="11" height="11" x="-32" y="0" data-level="0" rx="2" ry="2" class="o"></rect>
<rect width="11" height="11" x="-32" y="15" data-level="0" rx="2" ry="2" class="o"></rect>
<rect width="11" height="11" x="-32" y="30" data-level="0" rx="2" ry="2" class="o"></rect>
<rect width="11" height="11" x="-32" y="45" data-level="0" rx="2" ry="2" class="o"></rect>
<rect width="11" height="11" x="-32" y="60" data-level="0" rx="2" ry="2" class="o"></rect>
<rect width="11" height="11" x="-32" y="75" data-level="0" rx="2" ry="2" class="o"></rect>
<rect width="11" height="11" x="-32" y="90" data-level="0" rx="2" ry="2" class="o"></rect>
</g>
<g transform="translate(784, 0)">
<rect width="11" height="11" x="-33" y="0" data-level="0" rx="2" ry="2" class="o"></rect>
<rect width="11" height="11" x="-33" y="15" data-level="0" rx="2" ry="2" class="o"></rect>
<rect width="11" height="11" x="-33" y="30" data-level="0" rx="2" ry="2" class="o"></rect>
<rect width="11" height="11" x="-33" y="45" data-level="0" rx="2" ry="2" class="o"></rect>
<rect width="11" height="11" x="-33" y="60" data-level="0" rx="2" ry="2" class="o"></rect>
<rect width="11" height="11" x="-33" y="75" data-level="0" rx="2" ry="2" class="o"></rect>
<rect width="11" height="11" x="-33" y="90" data-level="0" rx="2" ry="2" class="o"></rect>
</g>
<g transform="translate(800, 0)">
<rect width="11" height="11" x="-34" y="0" data-level="0" rx="2" ry="2" class="o"></rect>
<rect width="11" height="11" x="-34" y="15" data-level="0" rx="2" ry="2" class="o"></rect>
<rect width="11" height="11" x="-34" y="30" data-level="0" rx="2" ry="2" class="o"></rect>
<rect width="11" height="11" x="-34" y="45" data-level="0" rx="2" ry="2" class="o"></rect>
<rect width="11" height="11" x="-34" y="60" data-level="0" rx="2" ry="2" class="o"></rect>
<rect width="11" height="11" x="-34" y="75" data-level="0" rx="2" ry="2" class="o"></rect>
<rect width="11" height="11" x="-34" y="90" data-level="0" rx="2" ry="2" class="o"></rect>
</g>
<g transform="translate(816, 0)">
<rect width="11" height="11" x="-35" y="0" data-level="0" rx="2" ry="2" class="o"></rect>
<rect width="11" height="11" x="-35" y="15" data-level="0" rx="2" ry="2" class="o"></rect>
<rect width="11" height="11" x="-35" y="30" data-level="0" rx="2" ry="2" class="o"></rect>
<rect width="11" height="11" x="-35" y="45" data-level="0" rx="2" ry="2" class="o"></rect>
<rect width="11" height="11" x="-35" y="60" data-level="0" rx="2" ry="2" class="o"></rect>
<rect width="11" height="11" x="-35" y="75" data-level="0" rx="2" ry="2" class="o"></rect>
<rect width="11" height="11" x="-35" y="90" data-level="0" rx="2" ry="2" class="o"></rect>
</g>
<g transform="translate(832, 0)">
<rect width="11" height="11" x="-36" y="0" data-level="0" rx="2" ry="2" class="o"></rect>
<rect width="11" height="11" x="-36" y="15" data-level="0" rx="2" ry="2" class="o"></rect>
<rect width="11" height="11" x="-36" y="30" data-level="0" rx="2" ry="2" class="o"></rect>
<rect width="11" height="11" x="-36" y="45" data-level="0" rx="2" ry="2" class="o"></rect>
<rect width="11" height="11" x="-36" y="60" data-level="0" rx="2" ry="2" class="o"></rect>
<rect width="11" height="11" x="-36" y="75" data-level="0" rx="2" ry="2" class="o"></rect>
<rect width="11" height="11" x="-36" y="90" data-level="0" rx="2" ry="2" class="o"></rect>
</g>
</g></svg>
