<svg xmlns="http://www.w3.org/2000/svg" viewBox="0 0 800 100" width="800" height="100">
  <style>
    .dot {
      fill: #FF5733;
      animation: changeColor 2s infinite alternate;
    }

    @keyframes changeColor {
      0% { fill: #FF5733; }
      25% { fill: #33FFBD; }
      50% { fill: #FF33A6; }
      75% { fill: #3385FF; }
      100% { fill: #4CAF50; }
    }
  </style>
  
  <!-- W -->
  <circle cx="20" cy="40" r="5" class="dot"/>
  <circle cx="30" cy="50" r="5" class="dot"/>
  <circle cx="40" cy="60" r="5" class="dot"/>
  <circle cx="50" cy="50" r="5" class="dot"/>
  <circle cx="60" cy="40" r="5" class="dot"/>
  
  <!-- E -->
  <circle cx="100" cy="30" r="5" class="dot"/>
  <circle cx="100" cy="40" r="5" class="dot"/>
  <circle cx="100" cy="50" r="5" class="dot"/>
  <circle cx="100" cy="60" r="5" class="dot"/>
  <circle cx="110" cy="30" r="5" class="dot"/>
  <circle cx="120" cy="30" r="5" class="dot"/>
  <circle cx="110" cy="50" r="5" class="dot"/>
  <circle cx="120" cy="50" r="5" class="dot"/>
  
  <!-- L -->
  <circle cx="160" cy="30" r="5" class="dot"/>
  <circle cx="160" cy="40" r="5" class="dot"/>
  <circle cx="160" cy="50" r="5" class="dot"/>
  <circle cx="160" cy="60" r="5" class="dot"/>
  <circle cx="170" cy="60" r="5" class="dot"/>
  <circle cx="180" cy="60" r="5" class="dot"/>
  
  <!-- C -->
  <circle cx="220" cy="30" r="5" class="dot"/>
  <circle cx="220" cy="40" r="5" class="dot"/>
  <circle cx="220" cy="50" r="5" class="dot"/>
  <circle cx="220" cy="60" r="5" class="dot"/>
  <circle cx="230" cy="30" r="5" class="dot"/>
  <circle cx="240" cy="30" r="5" class="dot"/>
  <circle cx="230" cy="60" r="5" class="dot"/>
  <circle cx="240" cy="60" r="5" class="dot"/>
  
  <!-- O -->
  <circle cx="290" cy="30" r="5" class="dot"/>
  <circle cx="290" cy="40" r="5" class="dot"/>
  <circle cx="290" cy="50" r="5" class="dot"/>
  <circle cx="290" cy="60" r="5" class="dot"/>
  <circle cx="300" cy="30" r="5" class="dot"/>
  <circle cx="310" cy="30" r="5" class="dot"/>
  <circle cx="320" cy="30" r="5" class="dot"/>
  <circle cx="320" cy="40" r="5" class="dot"/>
  <circle cx="320" cy="50" r="5" class="dot"/>
  <circle cx="320" cy="60" r="5" class="dot"/>
  <circle cx="310" cy="60" r="5" class="dot"/>
  <circle cx="300" cy="60" r="5" class="dot"/>
  
  <!-- M -->
  <circle cx="370" cy="30" r="5" class="dot"/>
  <circle cx="370" cy="40" r="5" class="dot"/>
  <circle cx="370" cy="50" r="5" class="dot"/>
  <circle cx="370" cy="60" r="5" class="dot"/>
  <circle cx="380" cy="30" r="5" class="dot"/>
  <circle cx="390" cy="40" r="5" class="dot"/>
  <circle cx="400" cy="30" r="5" class="dot"/>
  <circle cx="400" cy="40" r="5" class="dot"/>
  <circle cx="400" cy="50" r="5" class="dot"/>
  <circle cx="400" cy="60" r="5" class="dot"/>
  
  <!-- E -->
  <circle cx="450" cy="30" r="5" class="dot"/>
  <circle cx="450" cy="40" r="5" class="dot"/>
  <circle cx="450" cy="50" r="5" class="dot"/>
  <circle cx="450" cy="60" r="5" class="dot"/>
  <circle cx="460" cy="30" r="5" class="dot"/>
  <circle cx="470" cy="30" r="5" class="dot"/>
  <circle cx="460" cy="50" r="5" class="dot"/>
  <circle cx="470" cy="50" r="5" class="dot"/>
  
</svg>
